Coordinates
version=1
nRows=4
nColumns=63
inDegrees=yes

Units are S.I. units (second, meters, Newtons, ...)
If the header above contains a line with 'inDegrees', this indicates whether rotational values are in degrees (yes) or radians (no).

endheader
time	pelvis_tilt	pelvis_list	pelvis_rotation	pelvis_tx	pelvis_ty	pelvis_tz	hip_flexion_r	hip_adduction_r	hip_rotation_r	knee_angle_r	knee_angle_r_beta	ankle_angle_r	subtalar_angle_r	mtp_angle_r	hip_flexion_l	hip_adduction_l	hip_rotation_l	knee_angle_l	knee_angle_l_beta	ankle_angle_l	subtalar_angle_l	mtp_angle_l	L5_S1_Flex_Ext	L5_S1_Lat_Bending	L5_S1_axial_rotation	L4_L5_Flex_Ext	L4_L5_Lat_Bending	L4_L5_axial_rotation	L3_L4_Flex_Ext	L3_L4_Lat_Bending	L3_L4_axial_rotation	L2_L3_Flex_Ext	L2_L3_Lat_Bending	L2_L3_axial_rotation	L1_L2_Flex_Ext	L1_L2_Lat_Bending	L1_L2_axial_rotation	L1_T12_Flex_Ext	L1_T12_Lat_Bending	L1_T12_axial_rotation	Abs_r3	Abs_r2	Abs_r1	Abs_t1	Abs_t2	neck_flexion	neck_bending	neck_rotation	arm_flex_r	arm_add_r	arm_rot_r	elbow_flex_r	pro_sup_r	wrist_flex_r	wrist_dev_r	arm_flex_l	arm_add_l	arm_rot_l	elbow_flex_l	pro_sup_l	wrist_flex_l	wrist_dev_l
      1.26666667	      4.13899760	     -2.18638032	     90.47681047	      0.11931494	      1.14844748	      0.31928829	     -3.44879581	      1.34290604	     -9.95001167	      9.89431271	      0.17268833	     32.05095107	      7.14561860	      0.00000000	     -4.65576786	     -2.54561145	     27.84653846	      4.44173526	      0.07752290	     32.24528005	    -16.61717033	      0.00000000	     -0.37650238	      0.51274190	      1.03900793	     -0.69920257	      0.68194673	      1.10394593	     -0.61855576	      1.24668065	      1.10394593	     -0.43030457	      1.24668065	      0.90913194	     -0.34962011	      1.04558328	      0.84419395	     -0.21513346	      0.79423720	      0.77925595	     -2.68931887	      5.80023891	      5.77865043	      0.00000000	      0.00000000	     19.50176744	     -5.23311527	     -0.28059978	     -6.40871329	    -19.30507049	     37.94257485	     21.44028809	     42.86864983	     -6.60080487	     -5.90084992	      7.11415596	    -10.87999620	     54.04525176	     24.16373862	     86.20231611	    -11.69701789	      3.42622150
      1.28333333	      4.31510679	     -2.29861229	     91.10245465	      0.11892084	      1.14786627	      0.31919485	     -3.52474439	      1.64024233	    -10.29436002	      9.55283921	      0.16672850	     31.94275876	      6.89696628	      0.00000000	     -4.40074821	     -2.75797385	     27.79664230	      4.88641932	      0.08528411	     32.12990103	    -16.35646461	      0.00000000	     -0.37902549	      0.52905281	      0.88007670	     -0.70388823	      0.70364023	      0.93508150	     -0.62270097	      1.28633900	      0.93508150	     -0.43318823	      1.28633900	      0.77006711	     -0.35196307	      1.07884448	      0.71506232	     -0.21657516	      0.81950280	      0.66005753	     -2.70734116	      5.98475117	      4.89472260	      0.00000000	      0.00000000	     20.10377810	     -5.54502640	     -0.62354250	     -6.94109884	    -19.25433547	     39.11681421	     20.34907581	     43.22014523	     -5.93982361	     -6.93044260	      5.62281303	    -11.05204204	     51.79349260	     24.15744624	     85.47249692	    -12.56687514	      1.61909251
      1.30000000	      4.12967048	     -2.50230281	     91.74531004	      0.11985996	      1.14768411	      0.31922098	     -3.52239318	      1.68550717	    -10.17315159	      9.13405553	      0.15941934	     31.79924138	      5.96583268	      0.00000000	     -4.10402827	     -2.70703634	     27.70800765	      5.14831583	      0.08985506	     31.86458214	    -15.89509991	      0.00000000	     -0.36530965	      0.47424942	      0.62963172	     -0.67841655	      0.63075172	      0.66898370	     -0.60016722	      1.15309003	      0.66898370	     -0.41751240	      1.15309003	      0.55092775	     -0.33922654	      0.96708941	      0.51157577	     -0.20873793	      0.73461234	      0.47222379	     -2.60937030	      5.36480424	      3.50182273	      0.00000000	      0.00000000	     20.67105700	     -5.04013486	     -0.86877256	     -1.66110561	    -18.43111532	     82.96354052	     12.74535844	      6.24970599	     -1.04711596	    -12.89006290	      3.36767277	    -11.58814873	     45.89369172	     24.97256368	     86.49476278	    -12.43254253	      0.39273154
      1.31666667	      4.22915477	     -2.62629563	     92.10584508	      0.11986366	      1.14711376	      0.31939635	     -3.51379608	      1.88213437	    -10.32093111	      8.85601857	      0.15456668	     31.84153608	      5.72878829	      0.00000000	     -3.95006294	     -2.86646686	     27.63573509	      5.28270397	      0.09220058	     31.79642579	    -15.59320556	      0.00000000	     -0.36586669	      0.47832227	      0.53781521	     -0.67945103	      0.63616861	      0.57142866	     -0.60108239	      1.16299276	      0.57142866	     -0.41814904	      1.16299276	      0.47058831	     -0.33974381	      0.97539477	      0.43697486	     -0.20905623	      0.74092119	      0.40336141	     -2.61334919	      5.41087715	      2.99116685	      0.00000000	      0.00000000	     21.35542874	     -5.12993913	     -1.20914152	     -2.13944669	    -18.45135130	     83.26439690	     12.59106509	      6.27235635	     -1.02585931	    -12.04652236	      2.25982532	    -11.66592515	     44.05833388	     24.95106470	     85.87255824	    -13.03068834	     -1.42778130
